<mxfile host="app.diagrams.net" modified="2021-04-02T08:21:00.921Z" agent="5.0 (X11)" etag="R3Us40IS25Zh4fD6zsSM" version="14.5.3" type="github">
  <diagram id="ghIjn4r9VyLBRYi38N73" name="Page-1">
    <mxGraphModel dx="498" dy="251" grid="1" gridSize="10" guides="1" tooltips="1" connect="1" arrows="1" fold="1" page="1" pageScale="1" pageWidth="850" pageHeight="1100" math="0" shadow="0">
      <root>
        <mxCell id="0" />
        <mxCell id="1" parent="0" />
        <mxCell id="qoWNESgYzZqjg3wZ_g20-3" style="edgeStyle=orthogonalEdgeStyle;rounded=0;orthogonalLoop=1;jettySize=auto;html=1;" edge="1" parent="1" source="qoWNESgYzZqjg3wZ_g20-1" target="qoWNESgYzZqjg3wZ_g20-2">
          <mxGeometry relative="1" as="geometry" />
        </mxCell>
        <mxCell id="qoWNESgYzZqjg3wZ_g20-1" value="The General Clauses Act, 1897" style="rounded=0;whiteSpace=wrap;html=1;" vertex="1" parent="1">
          <mxGeometry x="360" width="120" height="40" as="geometry" />
        </mxCell>
        <mxCell id="qoWNESgYzZqjg3wZ_g20-2" value="contains&amp;nbsp; ‘definitions’&amp;nbsp; of&amp;nbsp; certain&amp;nbsp; terms&amp;nbsp; and&amp;nbsp; general&amp;nbsp; principles of interpretation." style="text;html=1;strokeColor=none;fillColor=none;align=center;verticalAlign=middle;whiteSpace=wrap;rounded=0;" vertex="1" parent="1">
          <mxGeometry x="280" y="60" width="280" height="40" as="geometry" />
        </mxCell>
        <mxCell id="qoWNESgYzZqjg3wZ_g20-20" style="edgeStyle=orthogonalEdgeStyle;rounded=0;orthogonalLoop=1;jettySize=auto;html=1;entryX=0.501;entryY=0.005;entryDx=0;entryDy=0;entryPerimeter=0;" edge="1" parent="1" source="qoWNESgYzZqjg3wZ_g20-6" target="qoWNESgYzZqjg3wZ_g20-9">
          <mxGeometry relative="1" as="geometry" />
        </mxCell>
        <mxCell id="qoWNESgYzZqjg3wZ_g20-22" style="edgeStyle=orthogonalEdgeStyle;rounded=0;orthogonalLoop=1;jettySize=auto;html=1;entryX=0.497;entryY=0.007;entryDx=0;entryDy=0;entryPerimeter=0;" edge="1" parent="1" source="qoWNESgYzZqjg3wZ_g20-6" target="qoWNESgYzZqjg3wZ_g20-17">
          <mxGeometry relative="1" as="geometry" />
        </mxCell>
        <mxCell id="qoWNESgYzZqjg3wZ_g20-6" value="Legislation" style="ellipse;whiteSpace=wrap;html=1;align=center;newEdgeStyle={&quot;edgeStyle&quot;:&quot;entityRelationEdgeStyle&quot;,&quot;startArrow&quot;:&quot;none&quot;,&quot;endArrow&quot;:&quot;none&quot;,&quot;segment&quot;:10,&quot;curved&quot;:1};treeFolding=1;treeMoving=1;" vertex="1" parent="1">
          <mxGeometry x="120" y="120" width="120" height="40" as="geometry" />
        </mxCell>
        <mxCell id="qoWNESgYzZqjg3wZ_g20-8" value="" style="shape=table;html=1;whiteSpace=wrap;startSize=0;container=1;collapsible=0;childLayout=tableLayout;" vertex="1" parent="1">
          <mxGeometry x="40" y="180" width="280" height="80" as="geometry" />
        </mxCell>
        <mxCell id="qoWNESgYzZqjg3wZ_g20-9" value="" style="shape=partialRectangle;html=1;whiteSpace=wrap;collapsible=0;dropTarget=0;pointerEvents=0;fillColor=none;top=0;left=0;bottom=0;right=0;points=[[0,0.5],[1,0.5]];portConstraint=eastwest;" vertex="1" parent="qoWNESgYzZqjg3wZ_g20-8">
          <mxGeometry width="280" height="80" as="geometry" />
        </mxCell>
        <mxCell id="qoWNESgYzZqjg3wZ_g20-10" value="&lt;font style=&quot;font-size: 18px&quot;&gt;&lt;b&gt;Preamble&lt;/b&gt;&lt;/font&gt;" style="shape=partialRectangle;html=1;whiteSpace=wrap;connectable=0;overflow=hidden;fillColor=none;top=0;left=0;bottom=0;right=0;" vertex="1" parent="qoWNESgYzZqjg3wZ_g20-9">
          <mxGeometry width="90" height="80" as="geometry" />
        </mxCell>
        <mxCell id="qoWNESgYzZqjg3wZ_g20-11" value="&lt;div&gt;discloses&amp;nbsp; the&amp;nbsp; primary&amp;nbsp; intention&amp;nbsp; of&amp;nbsp; the&amp;nbsp; legislature&lt;/div&gt;&lt;font style=&quot;font-size: 6px&quot;&gt;e.g. Preamble of the Negotiable Instruments Act, 1881 states -&amp;nbsp;&amp;nbsp; “An Act to define&amp;nbsp; and&amp;nbsp; amend&amp;nbsp; the&amp;nbsp; law&amp;nbsp; relating&amp;nbsp; to&amp;nbsp; Promissory&amp;nbsp; Notes,&amp;nbsp; Bills&amp;nbsp; of&amp;nbsp; Exchange&amp;nbsp; and&amp;nbsp; Cheque.”&lt;/font&gt;" style="shape=partialRectangle;html=1;whiteSpace=wrap;connectable=0;overflow=hidden;fillColor=none;top=0;left=0;bottom=0;right=0;" vertex="1" parent="qoWNESgYzZqjg3wZ_g20-9">
          <mxGeometry x="90" width="190" height="80" as="geometry" />
        </mxCell>
        <mxCell id="qoWNESgYzZqjg3wZ_g20-12" value="" style="shape=table;html=1;whiteSpace=wrap;startSize=0;container=1;collapsible=0;childLayout=tableLayout;" vertex="1" parent="1">
          <mxGeometry x="40" y="390" width="280" height="40" as="geometry" />
        </mxCell>
        <mxCell id="qoWNESgYzZqjg3wZ_g20-13" value="" style="shape=partialRectangle;html=1;whiteSpace=wrap;collapsible=0;dropTarget=0;pointerEvents=0;fillColor=none;top=0;left=0;bottom=0;right=0;points=[[0,0.5],[1,0.5]];portConstraint=eastwest;" vertex="1" parent="qoWNESgYzZqjg3wZ_g20-12">
          <mxGeometry width="280" height="40" as="geometry" />
        </mxCell>
        <mxCell id="qoWNESgYzZqjg3wZ_g20-14" value="&lt;b&gt;&lt;font style=&quot;font-size: 18px&quot;&gt;ACT&lt;/font&gt;&lt;/b&gt;" style="shape=partialRectangle;html=1;whiteSpace=wrap;connectable=0;overflow=hidden;fillColor=none;top=0;left=0;bottom=0;right=0;" vertex="1" parent="qoWNESgYzZqjg3wZ_g20-13">
          <mxGeometry width="90" height="40" as="geometry" />
        </mxCell>
        <mxCell id="qoWNESgYzZqjg3wZ_g20-15" value="" style="shape=partialRectangle;html=1;whiteSpace=wrap;connectable=0;overflow=hidden;fillColor=none;top=0;left=0;bottom=0;right=0;" vertex="1" parent="qoWNESgYzZqjg3wZ_g20-13">
          <mxGeometry x="90" width="190" height="40" as="geometry" />
        </mxCell>
        <mxCell id="qoWNESgYzZqjg3wZ_g20-16" value="" style="shape=table;html=1;whiteSpace=wrap;startSize=0;container=1;collapsible=0;childLayout=tableLayout;" vertex="1" parent="1">
          <mxGeometry x="40" y="280" width="280" height="90" as="geometry" />
        </mxCell>
        <mxCell id="qoWNESgYzZqjg3wZ_g20-17" value="" style="shape=partialRectangle;html=1;whiteSpace=wrap;collapsible=0;dropTarget=0;pointerEvents=0;fillColor=none;top=0;left=0;bottom=0;right=0;points=[[0,0.5],[1,0.5]];portConstraint=eastwest;" vertex="1" parent="qoWNESgYzZqjg3wZ_g20-16">
          <mxGeometry width="280" height="90" as="geometry" />
        </mxCell>
        <mxCell id="qoWNESgYzZqjg3wZ_g20-18" value="&lt;font style=&quot;font-size: 18px&quot;&gt;&lt;b&gt;Bill&lt;/b&gt;&lt;/font&gt;" style="shape=partialRectangle;html=1;whiteSpace=wrap;connectable=0;overflow=hidden;fillColor=none;top=0;left=0;bottom=0;right=0;" vertex="1" parent="qoWNESgYzZqjg3wZ_g20-17">
          <mxGeometry width="90" height="90" as="geometry" />
        </mxCell>
        <mxCell id="qoWNESgYzZqjg3wZ_g20-19" value="&lt;div&gt;1.&amp;nbsp; draft of a legislative proposal&lt;/div&gt;&lt;div&gt;2.when&amp;nbsp; passed&amp;nbsp; by&amp;nbsp; both&amp;nbsp; houses&amp;nbsp; of&amp;nbsp; Parliamen&lt;/div&gt;&lt;div&gt;3. assented&amp;nbsp; to&amp;nbsp; by&amp;nbsp; the&amp;nbsp; President&lt;/div&gt;&lt;div&gt;4. becomes an ACT&lt;br&gt;&lt;/div&gt;" style="shape=partialRectangle;html=1;whiteSpace=wrap;connectable=0;overflow=hidden;fillColor=none;top=0;left=0;bottom=0;right=0;" vertex="1" parent="qoWNESgYzZqjg3wZ_g20-17">
          <mxGeometry x="90" width="190" height="90" as="geometry" />
        </mxCell>
      </root>
    </mxGraphModel>
  </diagram>
</mxfile>
